Simulation
nRows=48
nColumns=15
endheader
time  TH_x TH_y TH_z SC_y  SC_z  SC_x  AC_y  AC_z  AC_x  GH_y  GH_z  GH_yy  EL_x  PS_y
2.681  0.000000  0.000000  0.000000  -20.354325169550496  4.952056164890029  -6.834686124708044  52.12132925380248  8.957895322152577  5.175712344817678  -25.048971237092353  11.716294073179146  55.030485807303585  15.849022715965825  120.000000
2.73462  0.000000  0.000000  0.000000  -20.077814017688404  4.786380373242104  -7.033799797693449  52.39648084211655  9.457102278088604  5.401681094856452  -25.996263261627153  9.670203910529082  59.22887185526929  16.91372797172131  120.000000
2.78824  0.000000  0.000000  0.000000  -20.166183053333043  4.728934827675247  -7.026487491924528  52.646808843875185  10.036818390929389  5.552949504931332  -25.68939378721311  7.817761881091771  61.43652797443576  17.775903660365174  120.000000
2.84186  0.000000  0.000000  0.000000  -20.522350438389683  4.750002028778309  -6.861328331458355  52.841487568073944  10.65637908159491  5.623830151407338  -23.829070008065944  6.183450464542513  61.41639653937192  18.395150922935198  120.000000
2.89548  0.000000  0.000000  0.000000  -21.023992596044597  4.815532318395724  -6.584080623777099  52.974123533805795  11.274955250178616  5.618332028160087  -20.181204625947924  4.814953021382456  59.056042454240924  18.765742817541003  120.000000
2.9491  0.000000  0.000000  0.000000  -21.55636222637984  4.893978855365663  -6.233501016653287  53.05726822507574  11.857701745929297  5.5477666404690265  -14.635855191109197  3.7507833271622415  54.38092232866128  18.90770945681311  120.000000
3.00272  0.000000  0.000000  0.000000  -22.035672967126484  4.961375552624883  -5.842371191442923  53.11201403128491  12.378432680241776  5.4276224253972565  -7.441096831952292  2.998945984570525  47.757660272531346  18.864868069188038  120.000000
3.05634  0.000000  0.000000  0.000000  -22.41673184005957  5.00277532424614  -5.441774603081688  53.15882542765056  12.819957372664183  5.274852557618601  0.5172580895981536  2.5310397789584416  40.16270924186134  18.698625255253585  120.000000
3.10996  0.000000  0.000000  0.000000  -22.685673446903486  5.0112154634087185  -5.064352722377092  53.21231551894006  13.176387705829843  5.108460875439117  7.9107847354732845  2.2919734307484845  32.99090447563863  18.4751936542639  120.000000
3.16358  0.000000  0.000000  0.000000  -22.848644254529404  4.9852781262674535  -4.737789558188023  53.279121181778464  13.44889768359774  4.947555851367826  13.735770457724847  2.22060848782791  27.295088421437523  18.24929448450725  120.000000
3.2172  0.000000  0.000000  0.000000  -22.92313719823857  4.927129108324759  -4.47667710755334  53.35824978043477  13.639257743991928  4.806153523670023  17.80727244194332  2.266806346750609  23.295710965196637  18.05158045135468  120.000000
3.27082  0.000000  0.000000  0.000000  -22.930368168730247  4.8437122397588865  -4.285339849441715  53.44523110888069  13.75223764445179  4.692819217502226  20.554694557955607  2.3974167644917506  20.58741391343941  17.88703245078403  120.000000
3.32444  0.000000  0.000000  0.000000  -22.890140113561255  4.7476563508031635  -4.161962530445248  53.53660587458633  13.797244730193217  4.610563278236857  22.57219347733768  2.59495738908017  18.590044107933934  17.744873778860505  120.000000
3.37806  0.000000  0.000000  0.000000  -22.81836036681503  4.653184584814981  -4.102708480050161  53.630063159379056  13.786378018852313  4.558113983128935  24.286591740070612  2.852457017917071  16.883555541439367  17.610658523455168  120.000000
3.43168  0.000000  0.000000  0.000000  -22.726819386673494  4.571710554314418  -4.103930138211571  53.721595106503436  13.730683151366492  4.532950544032145  25.869352805844702  3.1677658438069645  15.299025226966876  17.475607378907984  120.000000
3.4853  0.000000  0.000000  0.000000  -22.62267907499046  4.509047190203021  -4.162665099853488  53.80396556117846  13.637526957735052  4.533390269794522  27.284641246568338  3.540134773401933  13.873603709593274  17.339631138154637  120.000000
3.53892  0.000000  0.000000  0.000000  -22.50847257745863  4.465318977458458  -4.276998922215953  53.867703247812095  13.509558053454384  4.559304451618295  28.38999005157326  3.96859263816316  12.751473863770249  17.20858225585526  120.000000
3.59254  0.000000  0.000000  0.000000  -22.380469408690765  4.436319908423383  -4.446604723587826  53.904965910778444  13.345654178752337  4.611009465821267  29.021034784667417  4.452127281574321  12.100534154791605  17.08775229233556  120.000000
3.64616  0.000000  0.000000  0.000000  -22.228446550983918  4.415279584318038  -4.672862922925905  53.91271680103521  13.143007885175544  4.688187668267221  29.0399659188187  4.991536721315357  12.064007531037387  16.97534399048289  120.000000
3.69978  0.000000  0.000000  0.000000  -22.03657494222785  4.393321850081502  -4.958537059035283  53.89383809398855  12.899574294506827  4.789376151185626  28.34968834615478  5.592426466456639  12.744620435496731  16.858522613202652  120.000000
3.7534  0.000000  0.000000  0.000000  -21.788438948851983  4.36025825082876  -5.307008897080499  53.855319568413634  12.61581318703696  4.912790250559802  26.913623758344514  6.269300186531271  14.179359742795981  16.715361900910057  120.000000
3.80702  0.000000  0.000000  0.000000  -21.472752343142844  4.305227598596411  -5.722034860713239  53.806437991757136  12.296262527865425  5.056658213293988  24.783388506084247  7.049993772051239  16.303873422688188  16.520172226267594  120.000000
3.86064  0.000000  0.000000  0.000000  -21.09070255248383  4.215963991498231  -6.206769149917402  53.75452334988452  11.948954185943256  5.220529216441413  22.11128857744543  7.976519040013413  18.931236657095326  16.248867702329676  120.000000
3.91426  0.000000  0.000000  0.000000  -20.657494946185963  4.081023481559733  -6.763448898757534  53.70351538339784  11.584831105000791  5.405440763407634  19.121917966905233  9.100508164027135  21.777551209605434  15.882797364355921  120.000000
3.96788  0.000000  0.000000  0.000000  -20.19855921076185  3.8937291335813136  -7.392533164277115  53.65802416300933  11.220050446858306  5.611829373741903  16.049387143200548  10.477826077154482  24.529895207689222  15.410169322421188  120.000000
4.0215  0.000000  0.000000  0.000000  -19.742791801256473  3.6548234133609743  -8.09079208567128  53.62732349495678  10.877816805093511  5.841208763085548  13.067771509035127  12.163230348249758  26.93185861922214  14.829996819328615  120.000000
4.07512  0.000000  0.000000  0.000000  -19.31741085255239  3.370110765907584  -8.848051946349866  53.62435541468025  10.587977881730769  6.100642451358503  10.25737903818749  14.205240438787884  28.837477530027016  14.161452153198333  120.000000
4.1287400000000005  0.000000  0.000000  0.000000  -18.948619701760027  3.0509868539270784  -9.644606253510704  53.667223522546465  10.386625806080326  6.400118256916068  7.634438953072214  16.643571128755607  30.194848338129674  13.452151740807386  120.000000
4.18236  0.000000  0.000000  0.000000  -18.662129873517387  2.715710121309732  -10.450171993074322  53.7810129914541  10.315034466121656  6.745639679644812  5.197799501277427  19.503150038252137  31.00117272096423  12.773858919265104  120.000000
4.23598  0.000000  0.000000  0.000000  -18.482702453618135  2.3862867061818296  -11.221061721957797  53.988581288998375  10.414085260290145  7.138425851744952  2.9458568754315393  22.77975766981476  31.276662532802863  12.203408887305809  120.000000
4.2896  0.000000  0.000000  0.000000  -18.42162703312535  2.0917485598340795  -11.900949222239008  54.30993197606329  10.721688342176682  7.565730470238322  0.877716930948469  26.425410888855797  31.048199067408376  11.794673166449755  120.000000
4.3432200000000005  0.000000  0.000000  0.000000  -18.468417468737876  1.8655403902341559  -12.425533000032638  54.75466760168335  11.271527725680755  8.002741261401951  -1.0217385661710643  30.33912758725911  30.35280643251919  11.553489555624756  120.000000
4.39684  0.000000  0.000000  0.000000  -18.594154294640028  1.7280779483852142  -12.736064882603824  55.30181299011169  12.08927552726167  8.43597199044854  -2.7943250144541545  34.36873601690825  29.251414815068266  11.434852299421586  120.000000
4.45046  0.000000  0.000000  0.000000  -18.76020745990754  1.6891667369684018  -12.798528184297172  55.9206186924549  13.182599396181665  8.85574253979107  -4.473646903190186  38.337149024853694  27.80785912231852  11.368020641551878  120.000000
4.50408  0.000000  0.000000  0.000000  -18.93324769633079  1.756287500983967  -12.596589287281994  56.58674581349191  14.521938788635493  9.243398371274848  -6.066588550201448  42.08195049274013  26.088778107084057  11.288260913702407  120.000000
4.5577000000000005  0.000000  0.000000  0.000000  -19.10017011747243  1.928323495699344  -12.108988872122097  57.26469582706231  16.03224359404911  9.587532787295977  -7.562861953872926  45.4878221594736  24.185544246591512  11.159698515649964  120.000000
4.61132  0.000000  0.000000  0.000000  -19.263596538506693  2.2004534017875206  -11.306559250942701  57.91235063534071  17.601704398927595  9.887858818057923  -8.933593241834604  48.501082627437725  22.213095877659356  10.983272677992675  120.000000
4.66494  0.000000  0.000000  0.000000  -19.436553852851667  2.567173592859771  -10.160370184446396  58.48748931372792  19.10009265068932  10.150699412788912  -10.139479691958918  51.12286747366703  20.29737420639271  10.786552871082073  120.000000
4.71856  0.000000  0.000000  0.000000  -19.64249513448166  3.0208672280942044  -8.655135629010314  58.94982731670043  20.40317028390579  10.388134684338231  -11.144463269447638  53.390358165582406  18.553955648618857  10.605652224073744  120.000000
4.7721800000000005  0.000000  0.000000  0.000000  -19.908855272330744  3.5484094987681387  -6.8007223427637085  59.27004808470357  21.417824938562458  10.614868837607494  -11.921730980709668  55.35743649564856  17.06224724965095  10.472491593739626  120.000000
4.8258  0.000000  0.000000  0.000000  -20.26041839281064  4.129591723238416  -4.635878852794856  59.43608978632238  22.09761228149813  10.842862209328448  -12.459501162701567  57.0798201671379  15.852472346701918  10.409622529805917  120.000000
4.87942  0.000000  0.000000  0.000000  -20.71427683176408  4.737846862333855  -2.2258779653198335  59.453647955171036  22.443760734011587  11.077259339823817  -12.765161618622173  58.60648950276694  14.909355815015461  10.43049794569328  120.000000
4.93304  0.000000  0.000000  0.000000  -21.274490299916803  5.3421246818813275  0.34493019603711944  59.343299738218406  22.49494057266702  11.316084426946395  -12.863471327937527  59.97492486301587  14.184853831122927  10.542599427193862  120.000000
4.9866600000000005  0.000000  0.000000  0.000000  -21.929262248648126  5.910898991289576  2.982936795347851  59.136598619512526  22.31144570897123  11.551938512477333  -12.790641559435887  61.21025693886938  13.611866535122607  10.749359302191536  120.000000
5.04028  0.000000  0.000000  0.000000  -22.650885053905686  6.415974608494074  5.597374855485983  58.87131477869469  21.95955251281201  11.774122013285758  -12.58830072662166  62.32711200407238  13.11719372953093  11.050450960561998  120.000000
5.0939  0.000000  0.000000  0.000000  -23.399555349226212  6.835744125311773  8.108874193250802  58.5870670426325  21.498469779187598  11.968941201178746  -12.299395381527365  63.33284358786524  12.634082926794214  11.440383035680634  120.000000
5.14752  0.000000  0.000000  0.000000  -24.12951620997233  7.157205766479401  10.451243565059375  58.32115206877193  20.972166242532165  12.11741615786633  -11.965450750988538  64.2308730946645  12.114787091607392  11.904232907389844  120.000000
5.2011400000000005  0.000000  0.000000  0.000000  -24.79491494655889  7.3784630951158  12.56673729766279  58.10707659078523  20.40660068541554  12.192269357080773  -11.622668494317892  65.023892835591  11.54115468694835  12.41000067318142  120.000000
